<?xml version="1.0" encoding="UTF-8" standalone="no"?>
<!DOCTYPE svg PUBLIC "-//W3C//DTD SVG 1.1//EN" "http://www.w3.org/Graphics/SVG/1.1/DTD/svg11.dtd">
<svg xmlns="http://www.w3.org/2000/svg" version="1.1" viewBox="0.00 0.00 400.00 398.00">
<circle fill="#000000" cx="134.14" cy="129.95" r="9.92"/>
<path fill="#307ee1" d="
  M 100.07 178.04
  Q 102.96 178.29 105.10 176.70
  Q 108.69 174.04 112.42 172.75
  Q 112.70 172.65 112.88 172.42
  Q 112.97 172.30 113.08 172.22
  Q 113.16 172.15 113.26 172.13
  Q 116.23 171.27 119.36 170.66
  Q 119.60 170.61 119.79 170.45
  Q 119.89 170.36 119.98 170.26
  A 0.58 0.53 15.1 0 1 120.31 170.09
  Q 133.90 168.03 146.56 173.66
  Q 148.17 174.38 149.53 175.36
  C 150.79 176.26 152.28 176.93 153.45 177.83
  Q 163.93 185.90 169.03 197.07
  Q 176.26 212.89 173.48 230.21
  Q 171.75 240.98 166.08 249.88
  C 154.34 268.32 131.48 277.22 110.49 270.69
  C 106.72 269.51 102.96 268.19 99.59 266.09
  C 87.73 258.74 79.41 247.55 76.04 234.04
  Q 74.50 227.90 74.58 216.94
  Q 74.81 184.67 74.57 150.15
  Q 74.55 147.15 74.91 144.14
  Q 75.46 139.72 79.74 136.32
  Q 81.00 135.32 82.48 134.95
  C 84.06 134.55 85.32 133.68 87.00 133.73
  Q 93.14 133.91 98.59 133.74
  Q 99.60 133.71 99.59 134.72
  L 99.54 177.46
  Q 99.54 177.99 100.07 178.04
  Z
  M 124.1859 249.1685
  A 28.26 25.69 89.4 0 0 149.5786 220.6410
  A 28.26 25.69 89.4 0 0 123.5941 192.6515
  A 28.26 25.69 89.4 0 0 98.2014 221.1790
  A 28.26 25.69 89.4 0 0 124.1859 249.1685
  Z"
/>
<path fill="#307ee1" d="
  M 212.46 271.21
  Q 210.97 272.44 208.64 272.60
  Q 201.54 273.09 194.33 272.60
  A 0.49 0.48 -88.1 0 1 193.88 272.11
  Q 193.77 211.78 193.84 147.34
  C 193.85 141.64 196.20 137.58 201.31 135.02
  A 1.76 1.65 -81.5 0 0 201.88 134.57
  Q 202.51 133.82 203.49 133.82
  Q 210.72 133.82 218.05 133.78
  A 0.95 0.95 0.0 0 1 219.00 134.73
  Q 218.99 198.15 219.02 258.93
  Q 219.02 265.37 215.07 269.46
  C 214.23 270.32 213.34 270.48 212.46 271.21
  Z"
/>
<path fill="#307ee1" d="
  M 277.13 248.81
  Q 282.62 249.56 284.77 249.02
  Q 294.38 246.61 297.70 238.75
  Q 299.48 234.55 299.39 226.45
  Q 299.12 203.77 299.40 183.71
  C 299.49 176.84 304.90 171.61 311.77 171.57
  Q 318.09 171.53 323.80 171.69
  A 0.48 0.48 0.0 0 1 324.27 172.17
  Q 324.23 200.02 324.25 229.96
  Q 324.26 241.78 318.42 251.61
  Q 310.50 264.95 296.09 270.17
  Q 281.50 275.46 267.17 270.32
  Q 251.76 264.79 243.65 250.11
  Q 238.71 241.18 238.70 230.05
  Q 238.68 200.85 238.67 172.22
  A 0.53 0.53 0.0 0 1 239.18 171.69
  Q 245.10 171.49 251.01 171.49
  C 258.30 171.49 263.61 177.21 263.62 184.43
  Q 263.64 208.04 263.67 231.20
  Q 263.68 240.91 272.23 246.81
  C 273.22 247.49 274.81 247.62 275.75 248.27
  Q 276.39 248.72 277.13 248.81
  Z"
/>
</svg>
